{"title":"Austin Powers Pack (PSP + Ipod touch + Zune)","uid":5667604,"size":1113796868,"categoryP":"video","categoryS":"handheld","magnet":"?xt=urn:btih:8909e1bce1c95872742e45da44f233a1d068cd53&amp;dn=Austin+Powers+Pack+%28PSP+%2B+Ipod+touch+%2B+Zune%29&amp;tr=udp%3A%2F%2Ftracker.openbittorrent.com%3A80&amp;tr=udp%3A%2F%2Fopen.demonii.com%3A1337&amp;tr=udp%3A%2F%2Ftracker.coppersurfer.tk%3A6969&amp;tr=udp%3A%2F%2Fexodus.desync.com%3A6969","seeders":1,"leechers":0,"uploader":"on.off.on","files":-1,"time":1278199154,"description":"Austin Powers International Man of Mystery\n\nAustin Powers The Spy Who Shagged Me\n\nAustin Powers in Goldmember &lt;a href=&quot;\nhttp://www.imdb.com/title/tt0118655/&quot; rel=&quot;nofollow&quot; target=&quot;_NEW&quot;&gt;\nhttp://www.imdb.com/title/tt0118655/&lt;/a&gt; &lt;a href=&quot;\nhttp://www.imdb.com/title/tt0145660/&quot; rel=&quot;nofollow&quot; target=&quot;_NEW&quot;&gt;\nhttp://www.imdb.com/title/tt0145660/&lt;/a&gt; &lt;a href=&quot;\nhttp://www.imdb.com/title/tt0295178/&quot; rel=&quot;nofollow&quot; target=&quot;_NEW&quot;&gt;\nhttp://www.imdb.com/title/tt0295178/&lt;/a&gt;\n\n\nSource  :\n\nAustin.Powers.in.Goldmember.2002.720p.BluRay.DTS.x264-DON\n\nAustin.Powers.The.Spy.Who.Shagged.Me.1999.720p.BluRay.DTS.x264-DON\n\nAustin.Powers.International.Man.of.Mystery.1997.720p.BluRay.x264-DON\n\n\nInfo Austin.Powers.International.Man.of.Mystery-OOO:\n\nID                               : 1\nFormat                           : AVC\nFormat/Info                      : Advanced Video Codec\nFormat profile                   : &lt;a class=&quot;__cf_email__&quot; href=&quot;/cdn-cgi/l/email-protection&quot; data-cfemail=&quot;d795b6a4b2bbbeb9b2979be5f9e7&quot;&gt;[email&amp;#160;protected]&lt;/a&gt;&lt;script cf-hash='f9e31' type=&quot;text/javascript&quot;&gt;\n/* &lt;![CDATA[ */!function(){try{var t=&quot;currentScript&quot;in document?document.currentScript:function(){for(var t=document.getElementsByTagName(&quot;script&quot;),e=t.length;e--;)if(t[e].getAttribute(&quot;cf-hash&quot;))return t[e]}();if(t&amp;&amp;t.previousSibling){var e,r,n,i,c=t.previousSibling,a=c.getAttribute(&quot;data-cfemail&quot;);if(a){for(e=&quot;&quot;,r=parseInt(a.substr(0,2),16),n=2;a.length-n;n+=2)i=parseInt(a.substr(n,2),16)^r,e+=String.fromCharCode(i);e=document.createTextNode(e),c.parentNode.replaceChild(e,c)}}}catch(u){}}();/* ]]&gt; */&lt;/script&gt;\nFormat settings, CABAC           : No\nFormat settings, ReFrames        : 3 frames\nCodec ID                         : avc1\nCodec ID/Info                    : Advanced Video Coding\nDuration                         : 1h 29mn\nBit rate mode                    : Variable\nBit rate                         : 400 Kbps\nWidth                            : 480 pixels\nHeight                           : 208 pixels\nDisplay aspect ratio             : 2.35:1\nFrame rate mode                  : Variable\nFrame rate                       : 23.976 fps\nMinimum frame rate               : 23.810 fps\nMaximum frame rate               : 24.390 fps\nColor space                      : YUV\nChroma subsampling               : 4:2:0\nBit depth                        : 8 bits\nScan type                        : Progressive\nBits/(Pixel*Frame)               : 0.167\nStream size                      : 256 MiB (75%)\nWriting library                  : x264 core 79\n\nID                               : 2\nFormat                           : AAC\nFormat/Info                      : Advanced Audio Codec\nFormat version                   : Version 4\nFormat profile                   : LC\nFormat settings, SBR             : No\nCodec ID                         : 40\nDuration                         : 1h 29mn\nBit rate mode                    : Variable\nBit rate                         : 128 Kbps\nMaximum bit rate                 : 207 Kbps\nChannel(s)                       : 2 channels Dolby Pro Logic II\nChannel positions                : Front: L R\nSampling rate                    : 48.0 KHz\nStream size                      : 82.0 MiB (24%)\nLanguage                         : English\n\n\nScreens : &lt;a href=&quot;\nhttp://img695.imageshack.us/img695/4555/austinpowersingoldmembej.jpg&quot; rel=&quot;nofollow&quot; target=&quot;_NEW&quot;&gt;\nhttp://img695.imageshack.us/img695/4555/austinpowersingoldmembej.jpg&lt;/a&gt; &lt;a href=&quot;\nhttp://img80.imageshack.us/img80/2809/austinpowersinternation.jpg&quot; rel=&quot;nofollow&quot; target=&quot;_NEW&quot;&gt;\nhttp://img80.imageshack.us/img80/2809/austinpowersinternation.jpg&lt;/a&gt; &lt;a href=&quot;\nhttp://img408.imageshack.us/img408/8803/austinpowersthespywhosh.jpg&quot; rel=&quot;nofollow&quot; target=&quot;_NEW&quot;&gt;\nhttp://img408.imageshack.us/img408/8803/austinpowersthespywhosh.jpg&lt;/a&gt;\n\n\nPLEASE LET THE TORRENT SEED AND SHARE IT WITH ALL YOU KNOW!\n\nLet me know what I can do to be your trusted source of Handheld videos. &lt;a href=&quot;\nhttp://thepiratebay.se/user/on.off.on/&quot; rel=&quot;nofollow&quot; target=&quot;_NEW&quot;&gt;\nhttp://thepiratebay.se/user/on.off.on/&lt;/a&gt; -OOO","torrent":{"xt":"urn:btih:8909e1bce1c95872742e45da44f233a1d068cd53","amp;dn":"Austin+Powers+Pack+%28PSP+%2B+Ipod+touch+%2B+Zune%29","amp;tr":["udp%3A%2F%2Ftracker.openbittorrent.com%3A80","udp%3A%2F%2Fopen.demonii.com%3A1337","udp%3A%2F%2Ftracker.coppersurfer.tk%3A6969","udp%3A%2F%2Fexodus.desync.com%3A6969"],"infoHash":"8909e1bce1c95872742e45da44f233a1d068cd53","infoHashBuffer":{"type":"Buffer","data":[137,9,225,188,225,201,88,114,116,46,69,218,68,242,51,161,208,104,205,83]},"announce":[],"urlList":[]}}